<?xml version="1.0" encoding="utf-8"?>
<!-- Generator: Adobe Illustrator 21.0.0, SVG Export Plug-In . SVG Version: 6.00 Build 0)  -->
<svg version="1.1" id="Layer_1" xmlns="http://www.w3.org/2000/svg" xmlns:xlink="http://www.w3.org/1999/xlink" x="0px" y="0px"
	 viewBox="0 0 594 112.6" style="enable-background:new 0 0 594 112.6;" xml:space="preserve">
<style type="text/css">
	.st0{fill:#DB6789;}
	.st1{fill:#DD1452;}
	.st2{fill:#352E32;}
</style>
<path class="st0" d="M80,57.8c-8.9-3.8-18.2-8.4-25.1-15.1c-3.9-0.3-6.5-0.5-10.4-0.7c-3.5,2.5-4.1-1.9-1.9-1.9c3.2,0,6.5,0,9.7,0
	c-3.1-3.5-5.5-7.5-7.1-12.3c-0.5-1.6,2-2.3,2.6-0.7c0.9,2.9,2.2,5.4,3.8,7.8c1.5-2.1,3.1-4,4.8-5.9c1.2-1.3,3,0.6,1.9,1.9
	c-1.8,2-3.5,4.1-5.1,6.3c6.7,8.3,17,13.6,26.8,17.8V17c0-1.9-1.2-3.6-2.9-4.3l-0.3-0.1c-22.4-8.5-47.2-8.5-69.6,0l-0.7,0.3
	c-1.6,0.6-2.7,2.2-2.7,3.9v86.4c0,2.3,2.2,3.9,4.3,3.2l6.9-2.1c22.5-6.8,31.3-6.8,53.8,0l0,0c6.2,0,11.2-5,11.2-11.2V72.4
	c-0.2,0.1-0.4,0.2-0.6,0.2c-9.5,0.8-18.9,0.8-28.4,0.1c-1.5,4.6-7.1,6.3-11.3,7.4C38,80.5,37.3,78,39,77.5c3-0.8,7.8-1.9,9.2-5
	c-9-0.8-18.6-1.7-26.5-6.2c-1.5-0.9-0.1-3.2,1.4-2.3c3.8,2.2,8.1,3.5,12.6,4.3c-0.9-3-1.8-6-2.6-9c-0.5-1.7,2.1-2.4,2.6-0.7
	c0.9,3.4,1.9,6.8,3,10.2c4,0.6,8,0.9,11.9,1.2c9.6,0.7,19.3,0.7,28.9-0.1c0.2,0,0.4,0,0.6,0.1L80,57.8C80.1,57.8,80,57.8,80,57.8z
	 M62.8,26.8c0.6-3.3,3.7-5.4,7-4.8l1.6,0.3l-0.3,1.6c-0.6,3.3-3.7,5.4-7,4.8l-0.9-0.2c1.7-0.6,3.3-1.5,4.8-2.5
	c0.3-0.2,0.8-0.6,0.2-0.7c-0.5-0.1-1.5,0.6-1.9,0.8c-1.1,0.8-2.4,1.3-3.7,1.6L62.8,26.8z M64.7,38.8c-1.1-0.9-1.9-1.9-2.6-3.1
	l0.9-0.1c3.3-0.3,6.2,2.1,6.5,5.4l0.1,1.6L68,42.7c-3.3,0.3-6.2-2.1-6.5-5.4l-0.1-0.9c1.1,1.5,2.3,2.8,3.7,3.9
	c0.3,0.2,0.8,0.6,0.8,0C66,39.8,65.1,39.1,64.7,38.8z M54.6,13.3l1.3-0.9l0.9,1.3c1.8,2.8,1.1,6.5-1.7,8.3l-0.7,0.6
	c0.8-1.6,1.3-3.4,1.7-5.1c0.1-0.4,0.2-0.9-0.3-0.7c-0.5,0.3-0.7,1.4-0.8,1.9c-0.3,1.4-0.8,2.6-1.5,3.8l-0.6-0.9
	C51.1,18.8,51.9,15.1,54.6,13.3z M35.9,15.2h1.6c3.3,0,6,2.7,6,6v0.9c-0.9-1.5-2.1-3-3.4-4.3c-0.3-0.3-0.7-0.6-0.7-0.1
	s0.8,1.4,1.2,1.7c1,1,1.7,2.1,2.3,3.4H42c-3.3,0-6-2.7-6-6L35.9,15.2L35.9,15.2z M19.5,70.3c-1.9,2.7-5.7,3.3-8.4,1.4l-1.3-0.9
	l0.9-1.3c1.9-2.7,5.7-3.3,8.4-1.4l0.7,0.5c-1.8-0.1-3.6,0-5.4,0.3c-0.4,0.1-0.9,0.2-0.5,0.5s1.6,0.1,2.1,0.1
	c1.4-0.2,2.7-0.2,4.1,0.1L19.5,70.3z M34.9,81.1l0.9-0.1c-1.5,1.1-2.8,2.3-4,3.7c-0.2,0.3-0.6,0.8,0,0.8c0.5,0,1.3-0.9,1.6-1.3
	c0.9-1.1,2-1.9,3.1-2.6l0.1,0.9c0.3,3.3-2.2,6.2-5.5,6.5l-1.6,0.1l-0.1-1.5C29.1,84.3,31.6,81.4,34.9,81.1z M21.6,77.6
	c1-3.2,4.4-4.9,7.6-3.9L30,74c-1.8,0.4-3.5,1.1-5.1,1.9c-0.3,0.2-0.8,0.5-0.3,0.7s1.6-0.4,2-0.6c1.2-0.6,2.5-1,3.9-1.1l-0.3,0.9
	c-1,3.2-4.4,4.9-7.6,3.9l-1.5-0.5L21.6,77.6z M24.7,59l-0.2,0.9c-0.6-1.7-1.4-3.3-2.4-4.9c-0.2-0.3-0.6-0.8-0.7-0.3
	c-0.1,0.5,0.5,1.5,0.8,1.9c0.8,1.2,1.2,2.4,1.6,3.8l-0.9-0.2c-3.2-0.7-5.3-3.9-4.7-7.1l0.3-1.5l1.5,0.3C23.2,52.6,25.3,55.8,24.7,59
	z M29.9,32.1l1.3-1c2.6-2,6.4-1.5,8.4,1.1l0.5,0.7c-1.7-0.7-3.4-1.1-5.2-1.4c-0.4-0.1-1-0.1-0.7,0.4c0.3,0.4,1.5,0.6,2,0.7
	c1.4,0.2,2.6,0.6,3.9,1.3l-0.7,0.6c-2.6,2-6.4,1.5-8.4-1.1L29.9,32.1z M32.9,50.7l-1.6,0.1l-0.1-1.6c-0.3-3.3,2.2-6.2,5.5-6.5
	l0.9-0.1c-1.5,1.1-2.8,2.3-4,3.7c-0.2,0.3-0.6,0.8,0,0.8c0.5,0,1.3-0.9,1.6-1.3c0.9-1.1,2-1.9,3.1-2.6l0.1,0.9
	C38.7,47.5,36.2,50.4,32.9,50.7z M45.3,56.7c0.1-0.2,0-0.3-0.3-0.3c-0.5,0-1.3,0.9-1.7,1.2c-0.9,1-2,1.8-3.3,2.4v-0.9
	c-0.1-3.3,2.4-6.1,5.7-6.3l1.6-0.1l0.1,1.6c0.1,3.3-2.4,6.1-5.7,6.3h-0.9c1.5-1,2.9-2.2,4.1-3.5C45.1,57,45.3,56.8,45.3,56.7"/>
<path class="st1" d="M87.6,57.8V70c0.2-0.1,0.4-0.1,0.6-0.1c9.6,0.8,19.3,0.8,28.9,0.1c3.9-0.3,7.9-0.6,11.9-1.2
	c1.1-3.4,2.1-6.8,3-10.2c0.5-1.7,3-1,2.6,0.7c-0.8,3-1.7,6-2.6,9c4.4-0.8,8.7-2.1,12.6-4.3c1.5-0.9,2.9,1.5,1.4,2.3
	c-8,4.5-17.5,5.4-26.5,6.2c1.5,3.1,6.2,4.3,9.2,5c1.7,0.4,1,3-0.7,2.6c-4.2-1.1-9.8-2.8-11.3-7.4c-9.5,0.7-18.9,0.6-28.4-0.1
	c-0.2,0-0.4-0.1-0.6-0.2V93c0,6.2,5,11.2,11.2,11.2l0,0c22.5-6.8,31.3-6.8,53.8,0l6.9,2.1c2.2,0.7,4.3-1,4.3-3.2V16.7
	c0-1.7-1.1-3.3-2.7-3.9l-0.7-0.3c-22.4-8.5-47.2-8.5-69.6,0l-0.4,0.1c-1.8,0.7-2.9,2.4-2.9,4.3v37.9c9.8-4.2,20.1-9.5,26.8-17.8
	c-1.6-2.2-3.3-4.3-5.1-6.3c-1.2-1.3,0.7-3.2,1.9-1.9c1.7,1.9,3.3,3.9,4.8,5.9c1.6-2.4,2.9-4.9,3.8-7.8c0.5-1.6,3.1-0.9,2.6,0.7
	c-1.6,4.7-4,8.8-7.1,12.3c3.2,0,6.5,0,9.7,0c2.2,0,1.6,4.4-1.9,1.9c-3.9,0.3-6.5,0.5-10.4,0.7C105.8,49.5,96.6,54.1,87.6,57.8
	L87.6,57.8z M105,27.7c-1.3-0.3-2.6-0.9-3.7-1.6c-0.4-0.3-1.4-1-1.9-0.8c-0.5,0.1-0.1,0.5,0.2,0.7c1.5,1,3.1,1.9,4.8,2.5l-0.9,0.2
	c-3.3,0.6-6.4-1.6-7-4.8l-0.3-1.6l1.6-0.3c3.3-0.6,6.4,1.6,7,4.8L105,27.7z M101.7,40.4c0,0.5,0.5,0.2,0.8,0
	c1.4-1.2,2.7-2.5,3.7-3.9l-0.1,0.9c-0.3,3.3-3.2,5.7-6.5,5.4L98,42.7l0.1-1.6c0.3-3.3,3.2-5.7,6.5-5.4l0.9,0.1
	c-0.7,1.2-1.5,2.2-2.6,3.1C102.6,39.1,101.7,39.8,101.7,40.4z M114.7,21.6l-0.5,0.8c-0.7-1.2-1.3-2.4-1.5-3.8
	c-0.1-0.5-0.3-1.6-0.8-1.9s-0.4,0.3-0.3,0.7c0.4,1.8,0.9,3.5,1.7,5.1l-0.7-0.5c-2.8-1.8-3.5-5.6-1.7-8.3l0.9-1.3l1.3,0.9
	C115.8,15.1,116.6,18.8,114.7,21.6z M131.8,16.8c0,3.3-2.7,6-6,6h-0.9c0.6-1.2,1.3-2.4,2.3-3.4c0.3-0.3,1.2-1.2,1.2-1.7
	s-0.5-0.2-0.7,0.1c-1.3,1.3-2.4,2.7-3.4,4.3v-0.9c0-3.3,2.7-6,6-6h1.6v1.6H131.8z M147.6,69.6c1.3-0.2,2.7-0.3,4.1-0.1
	c0.5,0.1,1.7,0.3,2.1-0.1c0.4-0.3-0.1-0.5-0.5-0.5c-1.8-0.3-3.6-0.4-5.4-0.3l0.7-0.5c2.7-1.9,6.5-1.3,8.4,1.4l0.9,1.3l-1.3,0.9
	c-2.7,1.9-6.5,1.3-8.4-1.4L147.6,69.6z M138.3,87.6l-0.1,1.6l-1.6-0.1c-3.3-0.3-5.8-3.2-5.5-6.5l0.1-0.9c1.2,0.7,2.2,1.5,3.1,2.6
	c0.3,0.4,1.1,1.3,1.6,1.3s0.2-0.5,0-0.8c-1.2-1.4-2.5-2.6-4-3.7l0.9,0.1C136.1,81.4,138.6,84.3,138.3,87.6z M146.6,79.1l-1.5,0.5
	c-3.2,1-6.5-0.7-7.6-3.9l-0.3-0.9c1.4,0.2,2.7,0.5,3.9,1.1c0.4,0.2,1.5,0.8,2,0.6c0.5-0.2,0-0.5-0.3-0.7c-1.6-0.8-3.3-1.5-5.1-1.9
	l0.8-0.3c3.2-1,6.5,0.7,7.6,3.9L146.6,79.1z M147.7,51.9l1.5-0.3l0.3,1.5c0.7,3.2-1.4,6.4-4.7,7.1l-0.9,0.2c0.3-1.3,0.8-2.6,1.6-3.8
	c0.3-0.4,0.9-1.4,0.8-1.9c-0.2-0.5-0.5-0.1-0.7,0.3c-1,1.5-1.8,3.2-2.4,4.9L143,59C142.3,55.8,144.4,52.6,147.7,51.9z M136.8,33.4
	c-2,2.6-5.8,3.1-8.4,1.1l-0.7-0.6c1.2-0.6,2.5-1.1,3.9-1.3c0.5-0.1,1.7-0.2,2-0.7s-0.3-0.4-0.7-0.4c-1.8,0.2-3.6,0.7-5.2,1.4
	l0.5-0.7c2-2.6,5.8-3.1,8.4-1.1l1.3,1L136.8,33.4z M129.3,44.2l0.1-0.9c1.2,0.7,2.2,1.5,3.1,2.6c0.3,0.4,1.1,1.3,1.6,1.3
	s0.2-0.5,0-0.8c-1.2-1.4-2.5-2.6-4-3.7l0.9,0.1c3.3,0.3,5.8,3.2,5.5,6.5l-0.1,1.6l-1.6-0.1C131.5,50.4,129,47.5,129.3,44.2z
	 M121.2,52.4l0.1-1.6l1.6,0.1c3.3,0.1,5.9,3,5.7,6.3v0.9c-1.2-0.6-2.3-1.4-3.3-2.4c-0.3-0.3-1.1-1.2-1.7-1.2c-0.5,0-0.2,0.5,0.1,0.8
	c1.2,1.3,2.6,2.5,4.1,3.5h-0.9C123.6,58.5,121,55.7,121.2,52.4z"/>
<g>
	<path class="st2" d="M225.1,61c-4.4-2.2-7.9-5.2-10.5-8.9c-0.8,1.8-2.3,3.7-4.5,5.8c-2.2,2.1-4.2,3.7-6.2,4.6l-4.3-4.3
		c3.3-1.3,6.1-3.3,8.3-6.1c2.3-2.8,3.4-5.7,3.4-8.6v-2.7h-9.7v-5.1H227v5.1h-9.5v2.5c0,2.8,1.1,5.4,3.2,7.8c2.2,2.3,4.9,4.1,8.3,5.1
		L225.1,61z M209.6,78.7V62.9h6.2v10.6H241v5.2H209.6z M234.5,66.9V50.1h-9.2v-4.9h9.2v-12h6v33.7H234.5z"/>
	<path class="st2" d="M273.3,62.1v18.2h-6.2V62.1h-18.8v-5.2H292v5.2H273.3z M287.3,53.8c-7.4-1.4-13.1-4.4-17.2-8.9
		c-1.4,1.8-3.7,3.7-7,5.4c-3.3,1.8-6.6,3-9.9,3.5l-3.7-4.7c4-0.3,7.6-1.3,10.8-3c3.2-1.7,5.4-3.8,6.3-6.1h-13.5v-5.2h34.2V40h-13.7
		c0.9,2.2,2.9,4.1,6,5.8s6.8,2.7,11,3.2L287.3,53.8z"/>
	<path class="st2" d="M297,42.7v-4.9h11.4v-5.3h6.2v5.3H326v4.9H297z M311.6,62.7c-3.6,0-6.6-0.8-8.8-2.5c-2.2-1.7-3.3-3.8-3.3-6.4
		c0-2.6,1.1-4.7,3.3-6.4c2.2-1.7,5.2-2.5,8.9-2.5c3.7,0,6.7,0.8,8.9,2.5c2.2,1.7,3.3,3.8,3.3,6.4c0,2.6-1.1,4.7-3.3,6.4
		C318.3,61.9,315.3,62.7,311.6,62.7z M304.4,78.8V64.9h6.2v8.7H336v5.2H304.4z M311.6,49.9c-1.9,0-3.4,0.3-4.5,1s-1.6,1.6-1.6,2.8
		s0.5,2.2,1.5,2.9s2.5,1.1,4.5,1.1s3.5-0.4,4.6-1.1c1-0.7,1.6-1.7,1.6-2.9s-0.5-2.2-1.6-2.8C315.1,50.3,313.6,49.9,311.6,49.9z
		 M334.6,53.8v13.6h-6.1V33.2h6.1v15.5h7.2v5.2L334.6,53.8L334.6,53.8z"/>
	<path class="st2" d="M370.2,68.6c-4.5-3.3-8.1-7.1-10.6-11.4c-3.2,5.7-6.7,9.8-10.6,12.3l-4.5-3.9c3-1.5,5.7-4,8.2-7.6
		s3.7-7.2,3.7-10.7v-5h-10.2v-5.2h26.3v5.2h-10v4.8c0,3.3,1.2,6.6,3.5,9.9c2.4,3.2,5.1,5.6,8.1,7.2L370.2,68.6z M378.4,80.3V33.2h6
		v47.1H378.4z"/>
	<path class="st2" d="M418.7,61.2v9.2h-6.1v-9.2h-19.3V56H437v5.2H418.7z M399.7,78.6V64.5h6.2v9h25.4v5.1H399.7z M399.9,51.9V35.1
		h30.5v16.8H399.9z M424.3,40.2H406v6.6h18.3V40.2z"/>
	<path class="st2" d="M472.7,72.7c-8.7,0.5-19.5,0.8-32.4,0.8l-0.6-5.1l13.5-0.1v-4.8c-2.9-0.5-5.1-1.5-6.7-3.2
		c-1.6-1.6-2.4-3.6-2.4-5.9c0-2.7,1.1-4.9,3.3-6.7c2.2-1.7,5.2-2.6,8.9-2.6c3.8,0,6.8,0.8,8.9,2.5c2.2,1.7,3.2,3.9,3.2,6.6
		c0,2.3-0.8,4.3-2.4,5.9c-1.6,1.7-3.8,2.8-6.7,3.3v4.7c6.7-0.2,11-0.3,13-0.5L472.7,72.7z M441.6,43.5v-5.2h11.6v-5.5h6.2v5.5h11.5
		v5.2H441.6z M456.3,50.2c-1.8,0-3.3,0.4-4.4,1.2s-1.7,1.8-1.7,3.1c0,1.2,0.5,2.2,1.6,3s2.6,1.2,4.5,1.2s3.4-0.4,4.4-1.2
		c1.1-0.8,1.6-1.8,1.6-3c0-1.3-0.5-2.3-1.6-3.1C459.7,50.6,458.2,50.2,456.3,50.2z M480.5,58.4v21.9h-6.2V33.2h6.2v20.1h7.1v5.2
		L480.5,58.4L480.5,58.4z"/>
	<path class="st2" d="M521,80.3v-11h-25.4v-5.2h13v-4.2h-18.8v-5.2h43.7v5.2h-18.8v4.2h12.4v16.2H521z M529.2,52.5
		c-3.3-0.3-6.6-1.1-10-2.4c-3.4-1.3-5.9-2.8-7.4-4.3c-1.5,1.6-4,3-7.4,4.4c-3.4,1.3-6.9,2.2-10.3,2.4l-3.2-4.9
		c3.7,0,7.2-0.5,10.4-1.6s5.4-2.5,6.6-4.3h-13.2v-5h14v-4.2h6.2v4.2h14v5h-13.2c1.2,1.7,3.4,3.1,6.6,4.2c3.2,1.1,6.5,1.6,10,1.6
		L529.2,52.5z"/>
	<path class="st2" d="M557.9,68.3c-1.3-1-2.8-2.5-4.4-4.5c-1.6-2-2.8-3.7-3.4-5c-0.7,1.7-1.9,3.7-3.6,5.9c-1.7,2.2-3.4,3.9-4.9,5.1
		l-4.5-3.8c3.2-2.1,5.7-4.8,7.4-8.1c1.8-3.2,2.6-6.8,2.6-10.6v-5.2H539V37h21.3v5.1H553v5.7c0,3.3,0.8,6.4,2.4,9.2
		c1.6,2.9,3.8,5.2,6.6,7.1L557.9,68.3z M563.6,78.9V53.6h-6.5v-5h6.5V34.1h6.1v44.8H563.6z M573.1,80.3V33.2h6.1v47.1H573.1z"/>
</g>
</svg>
