<?xml version="1.0" encoding="utf-8"?>
<!-- Generator: Adobe Illustrator 21.0.0, SVG Export Plug-In . SVG Version: 6.00 Build 0)  -->
<svg version="1.1" id="Layer_1" xmlns="http://www.w3.org/2000/svg" xmlns:xlink="http://www.w3.org/1999/xlink" x="0px" y="0px"
	 viewBox="0 0 747.2 126.5" style="enable-background:new 0 0 747.2 126.5;" xml:space="preserve">
<style type="text/css">
	.st0{fill:#DB6789;}
	.st1{fill:#DD1452;}
	.st2{fill:#F9F7F8;}
</style>
<path class="st0" d="M100,63.2c-8.9-3.8-18.2-8.4-25.1-15.1c-3.9-0.3-6.5-0.5-10.4-0.7c-3.5,2.5-4.1-1.9-1.9-1.9c3.2,0,6.5,0,9.7,0
	c-3.1-3.5-5.5-7.5-7.1-12.3c-0.5-1.6,2-2.3,2.6-0.7c0.9,2.9,2.2,5.4,3.8,7.8c1.5-2.1,3.1-4,4.8-5.9c1.2-1.3,3,0.6,1.9,1.9
	c-1.8,2-3.5,4.1-5.1,6.3c6.7,8.3,17,13.6,26.8,17.8V22.4c0-1.9-1.2-3.6-2.9-4.3L96.8,18c-22.4-8.5-47.2-8.5-69.6,0l-0.7,0.3
	c-1.6,0.6-2.7,2.2-2.7,3.9v86.4c0,2.3,2.2,3.9,4.3,3.2l6.9-2.1c22.5-6.8,31.3-6.8,53.8,0h0c6.2,0,11.2-5,11.2-11.2V77.8
	c-0.2,0.1-0.4,0.2-0.6,0.2c-9.5,0.8-18.9,0.8-28.4,0.1c-1.5,4.6-7.1,6.3-11.3,7.4c-1.7,0.4-2.4-2.1-0.7-2.6c3-0.8,7.8-1.9,9.2-5
	c-9-0.8-18.6-1.7-26.5-6.2c-1.5-0.9-0.1-3.2,1.4-2.3c3.8,2.2,8.1,3.5,12.6,4.3c-0.9-3-1.8-6-2.6-9c-0.5-1.7,2.1-2.4,2.6-0.7
	c0.9,3.4,1.9,6.8,3,10.2c4,0.6,8,0.9,11.9,1.2c9.6,0.7,19.3,0.7,28.9-0.1c0.2,0,0.4,0,0.6,0.1L100,63.2
	C100.1,63.2,100,63.2,100,63.2z M82.8,32.2c0.6-3.3,3.7-5.4,7-4.8l1.6,0.3l-0.3,1.6c-0.6,3.3-3.7,5.4-7,4.8l-0.9-0.2
	c1.7-0.6,3.3-1.5,4.8-2.5c0.3-0.2,0.8-0.6,0.2-0.7c-0.5-0.1-1.5,0.6-1.9,0.8c-1.1,0.8-2.4,1.3-3.7,1.6L82.8,32.2z M84.7,44.2
	c-1.1-0.9-1.9-1.9-2.6-3.1l0.9-0.1c3.3-0.3,6.2,2.1,6.5,5.4l0.1,1.6l-1.6,0.1c-3.3,0.3-6.2-2.1-6.5-5.4l-0.1-0.9
	c1.1,1.5,2.3,2.8,3.7,3.9c0.3,0.2,0.8,0.6,0.8,0C86,45.2,85.1,44.5,84.7,44.2z M74.6,18.7l1.3-0.9l0.9,1.3c1.8,2.8,1.1,6.5-1.7,8.3
	L74.4,28c0.8-1.6,1.3-3.4,1.7-5.1c0.1-0.4,0.2-0.9-0.3-0.7c-0.5,0.3-0.7,1.4-0.8,1.9c-0.3,1.4-0.8,2.6-1.5,3.8L72.9,27
	C71.1,24.2,71.9,20.5,74.6,18.7z M55.9,20.6h1.6c3.3,0,6,2.7,6,6v0.9c-0.9-1.5-2.1-3-3.4-4.3c-0.3-0.3-0.7-0.6-0.7-0.1
	c0,0.5,0.8,1.4,1.2,1.7c1,1,1.7,2.1,2.3,3.4h-0.9c-3.3,0-6-2.7-6-6V20.6z M39.5,75.7c-1.9,2.7-5.7,3.3-8.4,1.4l-1.3-0.9l0.9-1.3
	c1.9-2.7,5.7-3.3,8.4-1.4l0.7,0.5c-1.8-0.1-3.6,0-5.4,0.3c-0.4,0.1-0.9,0.2-0.5,0.5c0.4,0.3,1.6,0.1,2.1,0.1
	c1.4-0.2,2.7-0.2,4.1,0.1L39.5,75.7z M54.9,86.5l0.9-0.1c-1.5,1.1-2.8,2.3-4,3.7c-0.2,0.3-0.6,0.8,0,0.8c0.5,0,1.3-0.9,1.6-1.3
	c0.9-1.1,2-1.9,3.1-2.6l0.1,0.9c0.3,3.3-2.2,6.2-5.5,6.5l-1.6,0.1L49.4,93C49.1,89.7,51.6,86.8,54.9,86.5z M41.6,83
	c1-3.2,4.4-4.9,7.6-3.9l0.8,0.3c-1.8,0.4-3.5,1.1-5.1,1.9c-0.3,0.2-0.8,0.5-0.3,0.7c0.5,0.2,1.6-0.4,2-0.6c1.2-0.6,2.5-1,3.9-1.1
	l-0.3,0.9c-1,3.2-4.4,4.9-7.6,3.9l-1.5-0.5L41.6,83z M44.7,64.4l-0.2,0.9c-0.6-1.7-1.4-3.3-2.4-4.9c-0.2-0.3-0.6-0.8-0.7-0.3
	c-0.1,0.5,0.5,1.5,0.8,1.9c0.8,1.2,1.2,2.4,1.6,3.8l-0.9-0.2c-3.2-0.7-5.3-3.9-4.7-7.1l0.3-1.5l1.5,0.3C43.2,58,45.3,61.2,44.7,64.4
	z M49.9,37.5l1.3-1c2.6-2,6.4-1.5,8.4,1.1l0.5,0.7c-1.7-0.7-3.4-1.1-5.2-1.4c-0.4-0.1-1-0.1-0.7,0.4c0.3,0.4,1.5,0.6,2,0.7
	c1.4,0.2,2.6,0.6,3.9,1.3l-0.7,0.6c-2.6,2-6.4,1.5-8.4-1.1L49.9,37.5z M52.9,56.1l-1.6,0.1l-0.1-1.6c-0.3-3.3,2.2-6.2,5.5-6.5
	l0.9-0.1c-1.5,1.1-2.8,2.3-4,3.7c-0.2,0.3-0.6,0.8,0,0.8c0.5,0,1.3-0.9,1.6-1.3c0.9-1.1,2-1.9,3.1-2.6l0.1,0.9
	C58.7,52.9,56.2,55.8,52.9,56.1z M65.3,62.1c0.1-0.2,0-0.3-0.3-0.3c-0.5,0-1.3,0.9-1.7,1.2c-0.9,1-2,1.8-3.3,2.4l0-0.9
	c-0.1-3.3,2.4-6.1,5.7-6.3l1.6-0.1l0.1,1.6c0.1,3.3-2.4,6.1-5.7,6.3l-0.9,0c1.5-1,2.9-2.2,4.1-3.5C65.1,62.4,65.3,62.2,65.3,62.1"/>
<path class="st1" d="M107.6,63.2v12.2c0.2-0.1,0.4-0.1,0.6-0.1c9.6,0.8,19.3,0.8,28.9,0.1c3.9-0.3,7.9-0.6,11.9-1.2
	c1.1-3.4,2.1-6.8,3-10.2c0.5-1.7,3-1,2.6,0.7c-0.8,3-1.7,6-2.6,9c4.4-0.8,8.7-2.1,12.6-4.3c1.5-0.9,2.9,1.5,1.4,2.3
	c-8,4.5-17.5,5.4-26.5,6.2c1.5,3.1,6.2,4.3,9.2,5c1.7,0.4,1,3-0.7,2.6c-4.2-1.1-9.8-2.8-11.3-7.4c-9.5,0.7-18.9,0.6-28.4-0.1
	c-0.2,0-0.4-0.1-0.6-0.2v20.6c0,6.2,5,11.2,11.2,11.2h0c22.5-6.8,31.3-6.8,53.8,0l6.9,2.1c2.2,0.7,4.3-1,4.3-3.2V22.1
	c0-1.7-1.1-3.3-2.7-3.9l-0.7-0.3c-22.4-8.5-47.2-8.5-69.6,0l-0.4,0.1c-1.8,0.7-2.9,2.4-2.9,4.3v37.9c9.8-4.2,20.1-9.5,26.8-17.8
	c-1.6-2.2-3.3-4.3-5.1-6.3c-1.2-1.3,0.7-3.2,1.9-1.9c1.7,1.9,3.3,3.9,4.8,5.9c1.6-2.4,2.9-4.9,3.8-7.8c0.5-1.6,3.1-0.9,2.6,0.7
	c-1.6,4.7-4,8.8-7.1,12.3c3.2,0,6.5,0,9.7,0c2.2,0,1.6,4.4-1.9,1.9c-3.9,0.3-6.5,0.5-10.4,0.7C125.8,54.9,116.6,59.5,107.6,63.2
	C107.6,63.2,107.6,63.2,107.6,63.2z M125,33.1c-1.3-0.3-2.6-0.9-3.7-1.6c-0.4-0.3-1.4-1-1.9-0.8c-0.5,0.1-0.1,0.5,0.2,0.7
	c1.5,1,3.1,1.9,4.8,2.5l-0.9,0.2c-3.3,0.6-6.4-1.6-7-4.8l-0.3-1.6l1.6-0.3c3.3-0.6,6.4,1.6,7,4.8L125,33.1z M121.7,45.8
	c0,0.5,0.5,0.2,0.8,0c1.4-1.2,2.7-2.5,3.7-3.9l-0.1,0.9c-0.3,3.3-3.2,5.7-6.5,5.4l-1.6-0.1l0.1-1.6c0.3-3.3,3.2-5.7,6.5-5.4l0.9,0.1
	c-0.7,1.2-1.5,2.2-2.6,3.1C122.6,44.5,121.7,45.2,121.7,45.8z M134.7,27l-0.5,0.8c-0.7-1.2-1.3-2.4-1.5-3.8
	c-0.1-0.5-0.3-1.6-0.8-1.9c-0.5-0.3-0.4,0.3-0.3,0.7c0.4,1.8,0.9,3.5,1.7,5.1l-0.7-0.5c-2.8-1.8-3.5-5.6-1.7-8.3l0.9-1.3l1.3,0.9
	C135.8,20.5,136.6,24.2,134.7,27z M151.8,22.2c0,3.3-2.7,6-6,6h-0.9c0.6-1.2,1.3-2.4,2.3-3.4c0.3-0.3,1.2-1.2,1.2-1.7
	c0-0.5-0.5-0.2-0.7,0.1c-1.3,1.3-2.4,2.7-3.4,4.3v-0.9c0-3.3,2.7-6,6-6h1.6V22.2z M167.6,75c1.3-0.2,2.7-0.3,4.1-0.1
	c0.5,0.1,1.7,0.3,2.1-0.1c0.4-0.3-0.1-0.5-0.5-0.5c-1.8-0.3-3.6-0.4-5.4-0.3l0.7-0.5c2.7-1.9,6.5-1.3,8.4,1.4l0.9,1.3l-1.3,0.9
	c-2.7,1.9-6.5,1.3-8.4-1.4L167.6,75z M158.3,93l-0.1,1.6l-1.6-0.1c-3.3-0.3-5.8-3.2-5.5-6.5l0.1-0.9c1.2,0.7,2.2,1.5,3.1,2.6
	c0.3,0.4,1.1,1.3,1.6,1.3c0.5,0,0.2-0.5,0-0.8c-1.2-1.4-2.5-2.6-4-3.7l0.9,0.1C156.1,86.8,158.6,89.7,158.3,93z M166.6,84.5
	l-1.5,0.5c-3.2,1-6.5-0.7-7.6-3.9l-0.3-0.9c1.4,0.2,2.7,0.5,3.9,1.1c0.4,0.2,1.5,0.8,2,0.6c0.5-0.2,0-0.5-0.3-0.7
	c-1.6-0.8-3.3-1.5-5.1-1.9l0.8-0.3c3.2-1,6.5,0.7,7.6,3.9L166.6,84.5z M167.7,57.3l1.5-0.3l0.3,1.5c0.7,3.2-1.4,6.4-4.7,7.1
	l-0.9,0.2c0.3-1.3,0.8-2.6,1.6-3.8c0.3-0.4,0.9-1.4,0.8-1.9c-0.2-0.5-0.5-0.1-0.7,0.3c-1,1.5-1.8,3.2-2.4,4.9l-0.2-0.9
	C162.3,61.2,164.4,58,167.7,57.3z M156.8,38.8c-2,2.6-5.8,3.1-8.4,1.1l-0.7-0.6c1.2-0.6,2.5-1.1,3.9-1.3c0.5-0.1,1.7-0.2,2-0.7
	c0.3-0.5-0.3-0.4-0.7-0.4c-1.8,0.2-3.6,0.7-5.2,1.4l0.5-0.7c2-2.6,5.8-3.1,8.4-1.1l1.3,1L156.8,38.8z M149.3,49.6l0.1-0.9
	c1.2,0.7,2.2,1.5,3.1,2.6c0.3,0.4,1.1,1.3,1.6,1.3c0.5,0,0.2-0.5,0-0.8c-1.2-1.4-2.5-2.6-4-3.7l0.9,0.1c3.3,0.3,5.8,3.2,5.5,6.5
	l-0.1,1.6l-1.6-0.1C151.5,55.8,149,52.9,149.3,49.6z M141.2,57.8l0.1-1.6l1.6,0.1c3.3,0.1,5.9,3,5.7,6.3l0,0.9
	c-1.2-0.6-2.3-1.4-3.3-2.4c-0.3-0.3-1.1-1.2-1.7-1.2c-0.5,0-0.2,0.5,0.1,0.8c1.2,1.3,2.6,2.5,4.1,3.5l-0.9,0
	C143.6,63.9,141,61.1,141.2,57.8z"/>
<g>
	<path class="st2" d="M245.1,66.4c-4.4-2.2-7.9-5.2-10.5-8.9c-0.8,1.8-2.3,3.7-4.5,5.8c-2.2,2.1-4.2,3.7-6.2,4.6l-4.3-4.3
		c3.3-1.3,6.1-3.3,8.3-6.1c2.3-2.8,3.4-5.7,3.4-8.6v-2.7h-9.7v-5.1H247v5.1h-9.5v2.5c0,2.8,1.1,5.4,3.2,7.8c2.2,2.3,4.9,4.1,8.3,5.1
		L245.1,66.4z M229.6,84.1V68.3h6.2v10.6H261v5.2H229.6z M254.5,72.3V55.5h-9.2v-4.9h9.2V38.6h6v33.7H254.5z"/>
	<path class="st2" d="M293.3,67.5v18.2h-6.2V67.5h-18.8v-5.2h43.7v5.2H293.3z M307.3,59.2c-7.4-1.4-13.1-4.4-17.2-8.9
		c-1.4,1.8-3.7,3.7-7,5.4c-3.3,1.8-6.6,3-9.9,3.5l-3.7-4.7c4-0.3,7.6-1.3,10.8-3c3.2-1.7,5.4-3.8,6.3-6.1h-13.5v-5.2h34.2v5.2h-13.7
		c0.9,2.2,2.9,4.1,6,5.8c3.1,1.7,6.8,2.7,11,3.2L307.3,59.2z"/>
	<path class="st2" d="M317,48.1v-4.9h11.4v-5.3h6.2v5.3h11.4v4.9H317z M331.6,68.1c-3.6,0-6.6-0.8-8.8-2.5c-2.2-1.7-3.3-3.8-3.3-6.4
		c0-2.6,1.1-4.7,3.3-6.4c2.2-1.7,5.2-2.5,8.9-2.5c3.7,0,6.7,0.8,8.9,2.5c2.2,1.7,3.3,3.8,3.3,6.4c0,2.6-1.1,4.7-3.3,6.4
		C338.3,67.3,335.3,68.1,331.6,68.1z M324.4,84.2V70.3h6.2V79h25.4v5.2H324.4z M331.6,55.3c-1.9,0-3.4,0.3-4.5,1
		c-1.1,0.7-1.6,1.6-1.6,2.8c0,1.2,0.5,2.2,1.5,2.9c1,0.7,2.5,1.1,4.5,1.1c2,0,3.5-0.4,4.6-1.1c1-0.7,1.6-1.7,1.6-2.9
		c0-1.2-0.5-2.2-1.6-2.8C335.1,55.7,333.6,55.3,331.6,55.3z M354.6,59.2v13.6h-6.1V38.6h6.1v15.5h7.2v5.2H354.6z"/>
	<path class="st2" d="M390.2,74c-4.5-3.3-8.1-7.1-10.6-11.4c-3.2,5.7-6.7,9.8-10.6,12.3l-4.5-3.9c3-1.5,5.7-4,8.2-7.6
		c2.5-3.6,3.7-7.2,3.7-10.7v-5h-10.2v-5.2h26.3v5.2h-10v4.8c0,3.3,1.2,6.6,3.5,9.9c2.4,3.2,5.1,5.6,8.1,7.2L390.2,74z M398.4,85.7
		V38.6h6v47.1H398.4z"/>
	<path class="st2" d="M438.7,66.6v9.2h-6.1v-9.2h-19.3v-5.2H457v5.2H438.7z M419.7,84V69.9h6.2v9h25.4V84H419.7z M419.9,57.3V40.5
		h30.5v16.8H419.9z M444.3,45.6H426v6.6h18.3V45.6z"/>
	<path class="st2" d="M492.7,78.1c-8.7,0.5-19.5,0.8-32.4,0.8l-0.6-5.1l13.5-0.1v-4.8c-2.9-0.5-5.1-1.5-6.7-3.2
		c-1.6-1.6-2.4-3.6-2.4-5.9c0-2.7,1.1-4.9,3.3-6.7c2.2-1.7,5.2-2.6,8.9-2.6c3.8,0,6.8,0.8,8.9,2.5c2.2,1.7,3.2,3.9,3.2,6.6
		c0,2.3-0.8,4.3-2.4,5.9c-1.6,1.7-3.8,2.8-6.7,3.3v4.7c6.7-0.2,11-0.3,13-0.5L492.7,78.1z M461.6,48.9v-5.2h11.6v-5.5h6.2v5.5h11.5
		v5.2H461.6z M476.3,55.6c-1.8,0-3.3,0.4-4.4,1.2c-1.1,0.8-1.7,1.8-1.7,3.1c0,1.2,0.5,2.2,1.6,3c1.1,0.8,2.6,1.2,4.5,1.2
		c1.9,0,3.4-0.4,4.4-1.2c1.1-0.8,1.6-1.8,1.6-3c0-1.3-0.5-2.3-1.6-3.1C479.7,56,478.2,55.6,476.3,55.6z M500.5,63.8v21.9h-6.2V38.6
		h6.2v20.1h7.1v5.2H500.5z"/>
	<path class="st2" d="M541,85.7v-11h-25.4v-5.2h13v-4.2h-18.8v-5.2h43.7v5.2h-18.8v4.2h12.4v16.2H541z M549.2,57.9
		c-3.3-0.3-6.6-1.1-10-2.4c-3.4-1.3-5.9-2.8-7.4-4.3c-1.5,1.6-4,3-7.4,4.4c-3.4,1.3-6.9,2.2-10.3,2.4l-3.2-4.9
		c3.7,0,7.2-0.5,10.4-1.6c3.2-1.1,5.4-2.5,6.6-4.3h-13.2v-5h14V38h6.2v4.2h14v5h-13.2c1.2,1.7,3.4,3.1,6.6,4.2
		c3.2,1.1,6.5,1.6,10,1.6L549.2,57.9z"/>
	<path class="st2" d="M577.9,73.7c-1.3-1-2.8-2.5-4.4-4.5c-1.6-2-2.8-3.7-3.4-5c-0.7,1.7-1.9,3.7-3.6,5.9c-1.7,2.2-3.4,3.9-4.9,5.1
		l-4.5-3.8c3.2-2.1,5.7-4.8,7.4-8.1c1.8-3.2,2.6-6.8,2.6-10.6v-5.2H559v-5.1h21.3v5.1H573v5.7c0,3.3,0.8,6.4,2.4,9.2
		c1.6,2.9,3.8,5.2,6.6,7.1L577.9,73.7z M583.6,84.3V59h-6.5v-5h6.5V39.5h6.1v44.8H583.6z M593.1,85.7V38.6h6.1v47.1H593.1z"/>
</g>
</svg>
